<svg xmlns="http://www.w3.org/2000/svg" viewBox="0 0 30 30">
    <path d="M-3030-2896a14.9,14.9,0,0,1-10.606-4.393A14.9,14.9,0,0,1-3045-2911a14.9,14.9,0,0,1,4.393-10.607A14.9,14.9,0,0,1-3030-2926a14.9,14.9,0,0,1,10.607,4.394A14.9,14.9,0,0,1-3015-2911a14.9,14.9,0,0,1-4.394,10.606A14.9,14.9,0,0,1-3030-2896Zm2.5-20.55a.749.749,0,0,0-.534.222l-5.295,5.295a.747.747,0,0,0-.221.534.753.753,0,0,0,.221.536l5.3,5.295a.75.75,0,0,0,.534.219.747.747,0,0,0,.534-.219.758.758,0,0,0,0-1.069l-4.759-4.761,4.759-4.761a.745.745,0,0,0,.222-.532.75.75,0,0,0-.222-.535A.749.749,0,0,0-3027.5-2916.551Z" transform="translate(3045 2926)" fill="#111"/>
</svg>
