<svg xmlns="http://www.w3.org/2000/svg" xmlns:xlink="http://www.w3.org/1999/xlink" width="211" height="211" viewBox="0 0 211 211"><defs><clipPath id="b"><rect width="211" height="211"/></clipPath></defs><g id="a" clip-path="url(#b)"><path d="M121.609,2.451a7,7,0,0,1,8.442,1.679l9.484,10.984a7,7,0,0,0,5.81,2.406l14.473-1.06a7,7,0,0,1,7.157,4.782l4.559,13.777a7,7,0,0,0,4.447,4.447l13.777,4.559a7,7,0,0,1,4.782,7.157l-1.06,14.473a7,7,0,0,0,2.406,5.81l10.984,9.484a7,7,0,0,1,1.679,8.442l-6.518,12.965a7,7,0,0,0,0,6.288l6.518,12.965a7,7,0,0,1-1.679,8.442l-10.984,9.484a7,7,0,0,0-2.406,5.81l1.06,14.473a7,7,0,0,1-4.782,7.157l-13.777,4.559a7,7,0,0,0-4.447,4.447l-4.559,13.777a7,7,0,0,1-7.157,4.782l-14.473-1.06a7,7,0,0,0-5.81,2.406l-9.484,10.984a7,7,0,0,1-8.442,1.679l-12.965-6.518a7,7,0,0,0-6.288,0l-12.965,6.518a7,7,0,0,1-8.442-1.679l-9.484-10.984a7,7,0,0,0-5.81-2.406l-14.473,1.06a7,7,0,0,1-7.157-4.782l-4.559-13.777a7,7,0,0,0-4.447-4.447l-13.777-4.559a7,7,0,0,1-4.782-7.157l1.06-14.473a7,7,0,0,0-2.406-5.81L4.131,130.052a7,7,0,0,1-1.679-8.442l6.518-12.965a7,7,0,0,0,0-6.288L2.451,89.39a7,7,0,0,1,1.679-8.442l10.984-9.484a7,7,0,0,0,2.406-5.81L16.46,51.182a7,7,0,0,1,4.782-7.157l13.777-4.559a7,7,0,0,0,4.447-4.447l4.559-13.777a7,7,0,0,1,7.157-4.782l14.473,1.06a7,7,0,0,0,5.81-2.406L80.948,4.13a7,7,0,0,1,8.442-1.679l12.965,6.518a7,7,0,0,0,6.288,0Z" transform="translate(0.5)" fill="#f5f5f7"/><g transform="translate(46.002 30)"><path d="M-13449.9-1804.03a3.94,3.94,0,0,1-1.679,1h-40.341a2.009,2.009,0,0,1-1.6-1,6.238,6.238,0,0,1-.2-2.742l10.424-48.585a84.524,84.524,0,0,1-14.491-23.537,65.465,65.465,0,0,1-3.727-13.31,60.756,60.756,0,0,1-.677-14.2c.258-3.7,2.736-5.965,5.133-8.156a15.872,15.872,0,0,0,4.107-4.867,39.929,39.929,0,0,1,7.48-11.2,39.86,39.86,0,0,1,10.09-7.63,47.29,47.29,0,0,1,11.852-4.358,57.815,57.815,0,0,1,12.763-1.386,65.491,65.491,0,0,1,14.279,1.593,62.679,62.679,0,0,1,13.184,4.5,48.564,48.564,0,0,1,10.912,6.99,32.255,32.255,0,0,1,7.46,9.063,60.614,60.614,0,0,1,4.016,9.594,102.87,102.87,0,0,1,3.008,11.514,161.4,161.4,0,0,1,2.982,26.213,163.5,163.5,0,0,1-1.1,26.167,103.6,103.6,0,0,1-2.094,11.457,59.152,59.152,0,0,1-3.131,9.514,26.863,26.863,0,0,1-4.39,7.176,11.354,11.354,0,0,1-5.536,3.606,16.294,16.294,0,0,1-4.019.444c-4.389,0-10.126-1.221-16.592-3.531a118.887,118.887,0,0,1-20.891-10.076l3.394,24.013a3.257,3.257,0,0,1-.614,1.733Z" transform="translate(13505.26 1955.028)" fill="#f1d2b5"/><path d="M126.454,64.961c-8.541,4.778-14.62,13.731-21.937,25.474a15.738,15.738,0,0,0-16.748,25.906c-3.641,5.139-7.721,10.508-12.4,16.047C57.923,121.92,44.945,91.41,61.6,61.955c14.334-59,95.558-22.379,111.184-32.329C176.2,51.036,165.188,68.3,126.454,64.961Z" transform="translate(-53.889 -27.678)" fill="#06051d" fill-rule="evenodd"/><circle cx="3.5" cy="3.5" r="3.5" transform="translate(67 112)" fill="#2c2525" opacity="0.75"/><path d="M-13502.5-1904.72l-17.846-17.845,8.237-8.236,17.845,17.845a5.826,5.826,0,0,1,0,8.236,5.81,5.81,0,0,1-4.119,1.706,5.8,5.8,0,0,1-4.117-1.706Z" transform="translate(13600.616 2055.012)" fill="#54504c"/><path d="M27.571,55.185a27.573,27.573,0,1,1,10.742-2.166,27.573,27.573,0,0,1-10.742,2.166Zm0-45.079A17.493,17.493,0,1,0,45.066,27.6a17.493,17.493,0,0,0-17.5-17.494Z" transform="translate(42.405 86.895)" fill="#796049"/></g></g></svg>