<svg xmlns="http://www.w3.org/2000/svg" viewBox="0 0 30 30">
    <path d="M-2585-3227a14.9,14.9,0,0,1-10.607-4.394A14.9,14.9,0,0,1-2600-3242a14.9,14.9,0,0,1,4.394-10.607A14.9,14.9,0,0,1-2585-3257a14.9,14.9,0,0,1,10.606,4.394A14.9,14.9,0,0,1-2570-3242a14.9,14.9,0,0,1-4.394,10.607A14.9,14.9,0,0,1-2585-3227Zm0-13.931h0l4.81,4.81a.753.753,0,0,0,.534.221.753.753,0,0,0,.535-.221.757.757,0,0,0,0-1.07l-4.811-4.81,4.811-4.81a.757.757,0,0,0,0-1.069.753.753,0,0,0-.535-.221.753.753,0,0,0-.534.221l-4.811,4.811-4.81-4.811a.753.753,0,0,0-.535-.221.753.753,0,0,0-.535.221.757.757,0,0,0,0,1.069l4.81,4.81-4.81,4.81a.757.757,0,0,0,0,1.07.753.753,0,0,0,.535.221.753.753,0,0,0,.535-.221l4.809-4.81Z" transform="translate(2600 3257)" fill="#fff"/>
</svg>
