<svg xmlns="http://www.w3.org/2000/svg" xmlns:xlink="http://www.w3.org/1999/xlink" width="152" height="152" viewBox="0 0 152 152"><defs><clipPath id="b"><rect width="152" height="152"/></clipPath></defs><g id="a" clip-path="url(#b)"><g transform="translate(16)"><path d="M-13448.907-1803.028h-45.62l11.227-52.327a84.53,84.53,0,0,1-14.492-23.537,65.5,65.5,0,0,1-3.727-13.31,60.75,60.75,0,0,1-.677-14.2c.259-3.7,2.737-5.965,5.134-8.156a15.864,15.864,0,0,0,4.107-4.867,39.935,39.935,0,0,1,7.48-11.2,39.887,39.887,0,0,1,10.09-7.63,47.275,47.275,0,0,1,11.852-4.358,57.822,57.822,0,0,1,12.762-1.386,65.506,65.506,0,0,1,14.279,1.593,62.659,62.659,0,0,1,13.185,4.5,48.55,48.55,0,0,1,10.911,6.99,32.247,32.247,0,0,1,7.461,9.063,60.614,60.614,0,0,1,4.016,9.594,102.649,102.649,0,0,1,3.008,11.514,161.552,161.552,0,0,1,2.98,26.213,163.425,163.425,0,0,1-1.1,26.167,103.646,103.646,0,0,1-2.095,11.457,59.311,59.311,0,0,1-3.131,9.514,26.882,26.882,0,0,1-4.39,7.176,11.357,11.357,0,0,1-5.535,3.606,16.291,16.291,0,0,1-4.019.444c-4.389,0-10.126-1.221-16.592-3.531a118.9,118.9,0,0,1-20.892-10.076l3.78,26.746Z" transform="translate(13505.26 1955.028)" fill="#f1d2b5"/><path d="M126.454,64.961c-8.541,4.778-14.62,13.731-21.937,25.474a15.738,15.738,0,0,0-16.748,25.906c-3.641,5.139-7.721,10.508-12.4,16.047C57.923,121.92,44.945,91.41,61.6,61.955c14.334-59,95.558-22.379,111.184-32.329C176.2,51.036,165.188,68.3,126.454,64.961Z" transform="translate(-53.889 -27.678)" fill="#06051d" fill-rule="evenodd"/><circle cx="3.5" cy="3.5" r="3.5" transform="translate(67 112)" fill="#2c2525" opacity="0.75"/><path d="M-13502.531-1904.725l-17.846-17.845,8.237-8.236,17.845,17.845a5.826,5.826,0,0,1,0,8.236,5.81,5.81,0,0,1-4.119,1.706A5.8,5.8,0,0,1-13502.531-1904.725Z" transform="translate(13600.616 2055.012)" fill="#54504c"/><path d="M27.571,55.185a27.573,27.573,0,1,1,10.742-2.166,27.594,27.594,0,0,1-10.742,2.166Zm0-45.079A17.493,17.493,0,1,0,45.066,27.6,17.493,17.493,0,0,0,27.571,10.105Z" transform="translate(42.405 86.895)" fill="#796049"/></g></g></svg>